name Walk5.mot
datacolumns 19
datarows 17
range 1.85700000 1.87300000
endheader

                time	   L_ground_force_vx	   L_ground_force_vy	   L_ground_force_vz	   L_ground_force_px	   L_ground_force_py	   L_ground_force_pz	   R_ground_force_vx	   R_ground_force_vy	   R_ground_force_vz	   R_ground_force_px	   R_ground_force_py	   R_ground_force_pz	   L_ground_torque_x	   L_ground_torque_y	   L_ground_torque_z	   R_ground_torque_x	   R_ground_torque_y	   R_ground_torque_z	
          1.85700000	          0.00000000	          0.00000000	          0.00000000	          0.00000000	          0.00000000	          0.00000000	         12.06943976	         56.59477210	          4.65165251	          0.29619674	          0.00000000	          0.06938231	          0.00000000	          0.00000000	          0.00000000	          0.00000000	         -4.68077444	          0.00000000	
          1.85800000	          0.00000000	          0.00000000	          0.00000000	          0.00000000	          0.00000000	          0.00000000	         10.48547551	         53.41395257	          4.63190750	          0.29759823	          0.00000000	          0.06964466	          0.00000000	          0.00000000	          0.00000000	          0.00000000	         -4.35862943	          0.00000000	
          1.85900000	          0.00000000	          0.00000000	          0.00000000	          0.00000000	          0.00000000	          0.00000000	          9.07352268	         50.35888517	          4.61719536	          0.29910221	          0.00000000	          0.07105958	          0.00000000	          0.00000000	          0.00000000	          0.00000000	         -4.07294919	          0.00000000	
          1.86000000	          0.00000000	          0.00000000	          0.00000000	          0.00000000	          0.00000000	          0.00000000	          7.80332749	         47.42867413	          4.60481435	          0.30093593	          0.00000000	          0.07346410	          0.00000000	          0.00000000	          0.00000000	          0.00000000	         -3.81529095	          0.00000000	
          1.86100000	          0.00000000	          0.00000000	          0.00000000	          0.00000000	          0.00000000	          0.00000000	          6.64490817	         44.59277545	          4.58213815	          0.30300966	          0.00000000	          0.07614529	          0.00000000	          0.00000000	          0.00000000	          0.00000000	         -3.57547745	          0.00000000	
          1.86200000	          0.00000000	          0.00000000	          0.00000000	          0.00000000	          0.00000000	          0.00000000	          5.57766052	         41.82419369	          4.53036988	          0.30474387	          0.00000000	          0.07823421	          0.00000000	          0.00000000	          0.00000000	          0.00000000	         -3.34671220	          0.00000000	
          1.86300000	          0.00000000	          0.00000000	          0.00000000	          0.00000000	          0.00000000	          0.00000000	          4.58852122	         39.13664776	          4.43751169	          0.30555088	          0.00000000	          0.07939347	          0.00000000	          0.00000000	          0.00000000	          0.00000000	         -3.13015555	          0.00000000	
          1.86400000	          0.00000000	          0.00000000	          0.00000000	          0.00000000	          0.00000000	          0.00000000	          3.66892641	         36.56531460	          4.30261119	          0.30549459	          0.00000000	          0.07990819	          0.00000000	          0.00000000	          0.00000000	          0.00000000	         -2.93042241	          0.00000000	
          1.86500000	          0.00000000	          0.00000000	          0.00000000	          0.00000000	          0.00000000	          0.00000000	          2.81222361	         34.12877451	          4.13256925	          0.30533651	          0.00000000	          0.08014264	          0.00000000	          0.00000000	          0.00000000	          0.00000000	         -2.74781438	          0.00000000	
          1.86600000	          0.00000000	          0.00000000	          0.00000000	          0.00000000	          0.00000000	          0.00000000	          2.01144729	         31.82857007	          3.93790008	          0.30606402	          0.00000000	          0.08027764	          0.00000000	          0.00000000	          0.00000000	          0.00000000	         -2.57638217	          0.00000000	
          1.86700000	          0.00000000	          0.00000000	          0.00000000	          0.00000000	          0.00000000	          0.00000000	          1.26476914	         29.62213765	          3.72203015	          0.30830394	          0.00000000	          0.08029975	          0.00000000	          0.00000000	          0.00000000	          0.00000000	         -2.40394521	          0.00000000	
          1.86800000	          0.00000000	          0.00000000	          0.00000000	          0.00000000	          0.00000000	          0.00000000	          0.58297224	         27.36338286	          3.47099497	          0.31192832	          0.00000000	          0.07991463	          0.00000000	          0.00000000	          0.00000000	          0.00000000	         -2.21233252	          0.00000000	
          1.86900000	          0.00000000	          0.00000000	          0.00000000	          0.00000000	          0.00000000	          0.00000000	         -0.00732920	         24.80469360	          3.15754946	          0.31618321	          0.00000000	          0.07886006	          0.00000000	          0.00000000	          0.00000000	          0.00000000	         -1.98301491	          0.00000000	
          1.87000000	          0.00000000	          0.00000000	          0.00000000	          0.00000000	          0.00000000	          0.00000000	         -0.46005441	         21.65547777	          2.75219428	          0.32028559	          0.00000000	          0.07734152	          0.00000000	          0.00000000	          0.00000000	          0.00000000	         -1.70212036	          0.00000000	
          1.87100000	          0.00000000	          0.00000000	          0.00000000	          0.00000000	          0.00000000	          0.00000000	         -0.71884618	         17.68257363	          2.23535281	          0.32391974	          0.00000000	          0.07579720	          0.00000000	          0.00000000	          0.00000000	          0.00000000	         -1.36238739	          0.00000000	
          1.87200000	          0.00000000	          0.00000000	          0.00000000	          0.00000000	          0.00000000	          0.00000000	         -0.75600127	         12.95593165	          1.62579680	          0.32722597	          0.00000000	          0.07443706	          0.00000000	          0.00000000	          0.00000000	          0.00000000	         -0.97704538	          0.00000000	
          1.87300000	          0.00000000	          0.00000000	          0.00000000	          0.00000000	          0.00000000	          0.00000000	          0.00000000	          0.00000000	          0.00000000	          0.00000000	          0.00000000	          0.00000000	          0.00000000	          0.00000000	          0.00000000	          0.00000000	          0.00000000	          0.00000000	
